<svg viewBox="0 0 24 24" xmlns="http://www.w3.org/2000/svg"><path d="M16.509 16.845c.147-.507.09-.971-.156-1.316-.224-.316-.604-.499-1.061-.52l-8.66-.113a.156.156 0 0 1-.133-.071c-.028-.042-.035-.099-.021-.155.028-.084.112-.149.204-.157l8.736-.112c1.035-.049 2.16-.887 2.554-1.914l.499-1.3a.32.32 0 0 0 .014-.169 5.69 5.69 0 0 0-10.897-.583 2.56 2.56 0 0 0-4.1 1.816c-.029.31-.007.613.063.894C1.568 13.171 0 14.775 0 16.752c0 .175.014.352.035.527.014.083.085.148.169.148h15.981c.091 0 .176-.065.204-.156zm2.757-5.564c-.077 0-.161 0-.238.011-.057 0-.106.042-.127.098l-.338 1.174c-.148.507-.092.971.154 1.317.226.316.606.498 1.063.52l1.843.112c.056 0 .106.027.133.07.028.043.035.108.021.157-.028.084-.113.148-.204.155l-1.921.112c-1.041.049-2.158.887-2.553 1.914l-.14.359c-.028.071.021.142.099.142h6.597c.077 0 .148-.049.169-.126.112-.408.176-.837.176-1.28 0-2.603-2.125-4.727-4.734-4.727"/></svg>
