<svg viewBox="0 0 24 24" xmlns="http://www.w3.org/2000/svg"><path d="M22.84 2.9982v17.9987c.0086 1.6473-1.3197 2.9897-2.967 2.9984-1.694.009-3.019-1.37-2.978-3.1209V3.1204c-.037-1.5458 1.085-2.8762 2.616-3.1 1.636-.1915 3.1178.9796 3.3093 2.6158.014.1201.0208.241.0202.3619zM4.1326 18.0548c-1.6417 0-2.9726 1.331-2.9726 2.9726S2.4909 24 4.1326 24s2.9726-1.3309 2.9726-2.9726-1.331-2.9726-2.9726-2.9726zm7.8728-9.0098c-1.681.018-2.981 1.409-2.942 3.126v7.9845c0 2.167.9535 3.4825 2.3505 3.763 1.6118.3266 3.1832-.7152 3.5098-2.327.04-.1974.06-.3983.0593-.5998v-8.9585c.003-1.6474-1.33-2.9852-2.9773-2.9882z"/></svg>
