<svg xmlns="http://www.w3.org/2000/svg" viewBox="0 0 92 64">
  <path fill="#0d9dda" d="M38.33 6.98A16.03 16.03 0 0 1 49.92 2c6.04 0 11.3 3.37 14.1 8.36a19.42 19.42 0 0 1 7.97-1.7c10.89 0 19.71 8.9 19.71 19.88s-8.82 19.88-19.71 19.88c-1.33 0-2.63-.13-3.88-.39a14.4 14.4 0 0 1-12.58 7.38c-2.26 0-4.4-.52-6.3-1.45A16.46 16.46 0 0 1 34.1 63.98a16.48 16.48 0 0 1-15.43-10.76c-1.01.21-2.06.33-3.14.33-8.43 0-15.26-6.9-15.26-15.42 0-5.71 3.07-10.69 7.63-13.36a17.68 17.68 0 0 1-1.46-7.05C6.45 7.94 14.41 0 24.21 0c5.76 0 10.88 2.74 14.12 6.98Z"/>
</svg>
