<svg viewBox="0 0 24 24" xmlns="http://www.w3.org/2000/svg"><path d="M15.337 23.979l7.216-1.561S19.95 4.805 19.928 4.688c-.018-.116-.114-.192-.211-.192l-1.929-.136-1.439-1.411a.334.334 0 0 0-.121-.074l-.894 21.104zM11.71 11.305s-.81-.424-1.774-.424c-1.447 0-1.504.906-1.504 1.141 0 1.232 3.24 1.715 3.24 4.629 0 2.295-1.44 3.76-3.406 3.76-2.354 0-3.54-1.465-3.54-1.465l.646-2.086s1.245 1.066 2.28 1.066c.675 0 .975-.545.975-.932 0-1.619-2.654-1.694-2.654-4.359-.034-2.237 1.571-4.416 4.827-4.416 1.257 0 1.875.361 1.875.361zm4.226-8.471-.792.231c-.423-1.233-1.176-2.37-2.508-2.37h-.115C12.135.209 11.669 0 11.265 0 8.159 0 6.675 3.877 6.21 5.846L4.05 6.52c-.675.213-.694.232-.772.87-.075.462-1.83 14.063-1.83 14.063L15.009 24zm-8.758 2.7C7.697 3.75 8.951.84 11.17.84c.136 0 .271.038.405.135-.984.465-2.064 1.639-2.508 3.992zm2.833-.884c.466-1.777 1.333-2.645 2.085-2.971.193.501.309 1.176.309 2.1v.135zm3.204-.984v-.252c0-.752-.096-1.371-.271-1.871.694.074 1.141.867 1.429 1.755z"/></svg>
