<svg viewBox="0 0 24 24" xmlns="http://www.w3.org/2000/svg"><path d="M21.469 6.825A10.74 10.74 0 0 1 17.424 21.325l3.295-9.527c.615-1.54.82-2.771.82-3.864 0-.405-.026-.78-.07-1.11m-7.981.105c.647-.03 1.232-.105 1.232-.105.582-.075.514-.93-.067-.899l-2.88.135-2.85-.15c-.585-.03-.661.855-.075.885l1.125.09 1.68 4.605-2.37 7.08L5.354 6.9c.649-.03 1.234-.1 1.234-.1.585-.075.516-.93-.065-.896l-2.874.138c-.2 0-.438-.008-.69-.015A10.77 10.77 0 0 1 19.286 4.048c-1.246-.08-1.953.896-1.953 1.905 0 .89.513 1.643 1.06 2.531.411.72.89 1.643.89 2.977 0 .915-.354 1.994-.821 3.479l-1.075 3.585zm-1.488 15.855c-1.059 0-2.081-.153-3.048-.437l3.237-9.406 3.315 9.087c.024.053.05.101.078.149-1.12.393-2.325.609-3.582.609M1.211 12c0-1.564.336-3.05.935-4.39L7.29 21.709A10.79 10.79 0 0 1 1.211 12M12 0C5.385 0 0 5.385 0 12s5.385 12 12 12 12-5.385 12-12S18.615 0 12 0"/></svg>
