<svg viewBox="0 0 24 24" xmlns="http://www.w3.org/2000/svg"><path d="M4.157 0A4.151 4.151 0 0 0 0 4.161v15.678A4.151 4.151 0 0 0 4.157 24h15.682A4.152 4.152 0 0 0 24 19.839V4.161A4.152 4.152 0 0 0 19.839 0zm10.61 8.761a.613.613 0 1 1 .03 1.198.613.613 0 0 1-.03-1.198zm2.853 1.572c1.076-.038 1.77.54 1.77 1.72v.412h-2.499c.004.227.075.45.204.642.155.19.37.278.646.265.386 0 .617-.152.714-.455l.915.257c-.21.718-.755 1.034-1.637 1.034-1.19 0-1.893-.724-1.893-1.981 0-1.16.646-1.86 1.78-1.896zm-9.607.023c.959.02 1.409.47 1.409 1.481v2.276H8.53l-.109-.711h-.065a1.17 1.17 0 0 1-1.099.806c-.75 0-1.195-.39-1.195-1.065 0-.73.477-1.098 1.361-1.098h.952v-.181c0-.408-.178-.608-.574-.608-.304 0-.5.114-.571.34l-.99-.144c.146-.747.722-1.113 1.773-1.116zm4.384.007c.896 0 1.315.676 1.315 1.974 0 1.327-.445 2.034-1.324 2.034-.544 0-.948-.296-1.176-.827h-.045l.004 1.784h-1.059v-4.713h.904l.117.805h.057c.236-.633.648-.957 1.233-.957zm7.559.084h.903l.113.805h.053c.216-.546.53-.782.938-.782h.234v1.051h-.401c-.635 0-.792.249-.792.745v1.875h-1.054zm-17.515.003h3.262v.896L3.73 13.104l.034.113h1.973l.042.9H2.4v-.9l1.931-1.754-.045-.117H2.441zm11.815 0h1.055v3.659h-1.055zm3.443.684c-.457.014-.718.271-.808.787h1.545c-.034-.526-.257-.787-.737-.787zm-5.718.163c-.567.02-.858.333-.858.96 0 .63.292.965.861.965.476 0 .767-.33.767-.985 0-.63-.263-.96-.77-.94zm-4.509 1.266c-.265.013-.382.18-.382.378 0 .274.173.42.511.42.51 0 .774-.238.774-.639v-.14z"/></svg>
